<?xml version="1.0" encoding="UTF-8"?><svg id="a" xmlns="http://www.w3.org/2000/svg" viewBox="0 0 254.71 291.03"><defs><style>.b{fill:none;stroke:#1e458d;stroke-width:45px;}.b,.c{stroke-linejoin:round;}.c{fill:#050606;stroke:#f5f5f5;stroke-width:10px;}</style></defs><path class="b" d="M206.02,178.59c11.64-16.13,18.48-35.83,18.48-57.09,0-54.67-45.22-99-101-99S22.5,66.83,22.5,121.5s45.22,99,101,99c3.36,0,6.68-.16,9.95-.48"/><path class="c" d="M122.12,140.13l19.29,135.99c1.52,10.72,15.66,13.61,21.26,4.34l24.17-40.01c1.78-2.95,4.8-4.95,8.22-5.44l44.77-6.44c10.14-1.46,13.47-14.45,5.28-20.6l-104.66-78.66c-8.2-6.16-19.76,.67-18.32,10.82Z"/></svg>