<?xml version="1.0" encoding="UTF-8"?><svg id="a" xmlns="http://www.w3.org/2000/svg" viewBox="0 0 901.29 291.03"><defs><style>.b{fill:#f5f5f5;}.c{fill:none;stroke-width:45px;}.c,.d{stroke:#f5f5f5;stroke-linejoin:round;}.d{fill:#101010;stroke-width:10px;}</style></defs><g><path class="c" d="M206.02,178.59c11.64-16.13,18.48-35.83,18.48-57.09,0-54.67-45.22-99-101-99S22.5,66.83,22.5,121.5s45.22,99,101,99c3.36,0,6.68-.16,9.95-.48"/><path class="d" d="M122.12,140.13l19.29,135.99c1.52,10.72,15.66,13.61,21.26,4.34l24.17-40.01c1.78-2.95,4.8-4.95,8.22-5.44l44.77-6.44c10.14-1.46,13.47-14.45,5.28-20.6l-104.66-78.66c-8.2-6.16-19.76,.67-18.32,10.82h0Z"/></g><g><path class="b" d="M383.97,137.92v74.91h-34.18v-12.61c-8.97,10.18-23.27,15.51-36.85,15.51-26.67,0-47.27-16-47.27-40s23.03-41.7,52.12-41.7c10.18,0,21.33,2.18,32,6.3v-2.42c0-13.33-8.24-24.97-28.85-24.97-11.64,0-22.54,3.88-32.48,8.97l-11.88-23.51c17.7-8.97,34.91-13.82,52.36-13.82,32.73,0,55.03,20.61,55.03,53.33Zm-34.18,35.39v-11.64c-8-2.91-17.21-4.61-26.91-4.61-12.85,0-23.03,7.51-23.03,17.7s8.97,16.48,21.09,16.48c13.58,0,26.42-6.3,28.85-17.94Z"/><path class="b" d="M601.9,133.07v80h-33.94v-73.94c0-14.55-9.21-24.73-22.3-24.73-14.06,0-24.24,9.45-24.24,22.79v75.88h-33.94v-73.94c0-14.55-9.21-24.73-22.06-24.73-14.3,0-24.24,9.45-24.24,22.79v75.63h-35.39V87.5h35.39v16.48c6.06-11.88,18.42-19.39,33.94-19.39,17.21,0,32,8.73,39.76,22.79,6.54-13.82,22.06-22.79,40.73-22.79,26.18,0,46.3,20.12,46.3,48.48Z"/><path class="b" d="M622.75,50.9c0-9.94,8.49-18.91,19.39-18.91s18.91,8.97,18.91,18.91c0,10.67-8.48,19.39-18.91,19.39s-19.39-8.73-19.39-19.39Zm1.46,36.6h35.39v125.33h-35.39V87.5Z"/><path class="b" d="M761.41,84.59v29.82c-26.18,0-42.91,15.03-42.91,38.54v59.88h-35.39V87.5h35.39v23.27c8.24-16.24,23.76-26.18,42.91-26.18Z"/><path class="b" d="M764.57,150.04c0-35.63,31.27-65.45,68.6-65.45s68.12,29.82,68.12,65.45-31.03,65.7-68.12,65.7-68.6-30.06-68.6-65.7Zm103.03,0c0-19.39-15.76-35.63-34.42-35.63s-34.67,16.24-34.67,35.63,15.76,35.88,34.67,35.88,34.42-16.48,34.42-35.88Z"/></g></svg>